<svg width="30" height="30" viewBox="0 0 30 30" fill="none" xmlns="http://www.w3.org/2000/svg">
<path d="M11.4181 5.10646C11.9652 4.9415 12.5523 4.9689 13.0817 5.18411C13.611 5.39932 14.0507 5.78934 14.3276 6.28926L14.4201 6.47556L15.2478 8.31478C15.4985 8.87313 15.5798 9.4928 15.4815 10.0969C15.3833 10.701 15.1099 11.263 14.6952 11.7132L14.5289 11.8782L13.2248 13.0948C12.9897 13.3173 13.166 14.1788 14.0162 15.6517C14.7814 16.977 15.4041 17.5959 15.7104 17.6297H15.7642L15.8305 17.6172L18.3936 16.8332C18.7381 16.7276 19.1057 16.7234 19.4525 16.8212C19.7993 16.919 20.1106 17.1146 20.3491 17.3846L20.4629 17.5284L22.1596 19.879C22.4921 20.3397 22.6578 20.9 22.6294 21.4675C22.601 22.035 22.3802 22.5758 22.0033 23.0011L21.8507 23.1586L21.1731 23.8013C20.5645 24.3776 19.8033 24.767 18.9799 24.9233C18.1565 25.0795 17.3055 24.996 16.5281 24.6827C14.1088 23.7075 11.9107 21.4794 9.91393 18.021C7.91341 14.5539 7.08195 11.5319 7.4533 8.94369C7.56567 8.16133 7.88783 7.424 8.38558 6.81001C8.88333 6.19603 9.53807 5.72832 10.2803 5.45655L10.5216 5.37653L11.4181 5.10646Z" fill="#090F1F"/>
</svg>
