<svg width="30" height="30" viewBox="0 0 30 30" fill="none" xmlns="http://www.w3.org/2000/svg">
<path d="M14.9997 5C12.9166 5.00246 10.9196 5.83105 9.4466 7.30402C7.97363 8.77699 7.14504 10.7741 7.14258 12.8571C7.14067 14.5594 7.69666 16.2153 8.72544 17.5714C8.72544 17.5714 8.93973 17.8536 8.97473 17.8943L14.9997 25L21.0276 17.8907C21.059 17.8529 21.274 17.5714 21.274 17.5714L21.2747 17.5693C22.3028 16.2136 22.8585 14.5585 22.8569 12.8571C22.8544 10.7741 22.0258 8.77699 20.5529 7.30402C19.0799 5.83105 17.0828 5.00246 14.9997 5ZM14.9997 15.7143C14.4346 15.7143 13.8822 15.5467 13.4124 15.2328C12.9425 14.9188 12.5763 14.4726 12.3601 13.9505C12.1438 13.4284 12.0872 12.854 12.1975 12.2997C12.3077 11.7455 12.5798 11.2364 12.9794 10.8368C13.379 10.4373 13.8881 10.1651 14.4423 10.0549C14.9966 9.94466 15.571 10.0012 16.0931 10.2175C16.6152 10.4337 17.0614 10.7999 17.3754 11.2698C17.6893 11.7397 17.8569 12.2921 17.8569 12.8571C17.8559 13.6146 17.5546 14.3408 17.019 14.8764C16.4834 15.412 15.7572 15.7133 14.9997 15.7143Z" fill="#090F1F"/>
</svg>
