<svg width="30" height="30" viewBox="0 0 30 30" fill="none" xmlns="http://www.w3.org/2000/svg">
<path d="M7.78982 21.835C7.34002 21.835 6.96474 21.6846 6.664 21.3839C6.36326 21.0832 6.21257 20.7076 6.21191 20.2571V9.74292C6.21191 9.29311 6.36261 8.91783 6.664 8.61709C6.96539 8.31635 7.34034 8.16566 7.78885 8.16501H22.2107C22.6599 8.16501 23.0348 8.3157 23.3355 8.61709C23.6363 8.91849 23.787 9.29376 23.7876 9.74292V20.2581C23.7876 20.7072 23.6369 21.0825 23.3355 21.3839C23.0342 21.6853 22.6592 21.8357 22.2107 21.835H7.78982ZM14.9998 15.1133L22.8112 10.0056L22.5105 9.14144L14.9998 14.0236L7.48908 9.14144L7.18834 10.0056L14.9998 15.1133Z" fill="#090F1F"/>
</svg>
