<svg width="144" height="40" viewBox="0 0 144 40" fill="none" xmlns="http://www.w3.org/2000/svg">
<path d="M10.4914 22.6786L31.5676 2L10.4914 31.3776L0.5 16.316L10.4914 22.6786Z" fill="#FFD24F"/>
<path d="M10.8342 35.7001L31.5676 6.41088V37H10.8342V35.7001Z" fill="#FFD24F"/>
<path d="M10.2204 35.7001L0.5 21.1055V37H10.2204V35.7001Z" fill="#FFD24F"/>
<path d="M10.4914 22.6786L31.5676 2L10.4914 31.3776L0.5 16.316L10.4914 22.6786Z" stroke="#090F1F" stroke-width="0.4"/>
<path d="M10.8342 35.7001L31.5676 6.41088V37H10.8342V35.7001Z" stroke="#090F1F" stroke-width="0.4"/>
<path d="M10.2204 35.7001L0.5 21.1055V37H10.2204V35.7001Z" stroke="#090F1F" stroke-width="0.4"/>
<path d="M37.992 32V15.032H44.112C45.376 15.032 46.464 15.232 47.376 15.632C48.304 16.032 49.016 16.656 49.512 17.504C50.008 18.336 50.256 19.416 50.256 20.744C50.256 22.024 49.968 23.096 49.392 23.96C48.832 24.824 48.064 25.48 47.088 25.928C46.112 26.36 45 26.576 43.752 26.576H40.536V32H37.992ZM40.536 24.272H43.656C44.872 24.272 45.848 23.992 46.584 23.432C47.32 22.856 47.688 21.936 47.688 20.672C47.688 19.568 47.384 18.744 46.776 18.2C46.168 17.64 45.248 17.36 44.016 17.36H40.536V24.272ZM52.8167 32V19.352H55.1447L55.2647 21.176C55.5847 20.68 55.9527 20.288 56.3687 20C56.7847 19.712 57.2407 19.504 57.7367 19.376C58.2327 19.248 58.7527 19.184 59.2967 19.184C59.4407 19.184 59.5767 19.184 59.7047 19.184C59.8327 19.184 59.9527 19.184 60.0647 19.184V21.56H59.2967C58.3847 21.56 57.6247 21.744 57.0167 22.112C56.4247 22.48 55.9847 22.992 55.6967 23.648C55.4247 24.304 55.2887 25.056 55.2887 25.904V32H52.8167ZM67.3395 32.144C66.0275 32.144 64.9155 31.88 64.0035 31.352C63.0915 30.808 62.3955 30.048 61.9155 29.072C61.4515 28.096 61.2195 26.968 61.2195 25.688C61.2195 24.392 61.4595 23.264 61.9395 22.304C62.4195 21.328 63.1155 20.568 64.0275 20.024C64.9395 19.464 66.0515 19.184 67.3635 19.184C68.6755 19.184 69.7875 19.464 70.6995 20.024C71.6115 20.568 72.2995 21.328 72.7635 22.304C73.2275 23.28 73.4595 24.416 73.4595 25.712C73.4595 26.976 73.2195 28.096 72.7395 29.072C72.2755 30.048 71.5875 30.808 70.6755 31.352C69.7795 31.88 68.6675 32.144 67.3395 32.144ZM67.3395 29.936C68.2035 29.936 68.8995 29.744 69.4275 29.36C69.9715 28.976 70.3715 28.464 70.6275 27.824C70.8835 27.168 71.0115 26.456 71.0115 25.688C71.0115 24.92 70.8835 24.216 70.6275 23.576C70.3715 22.936 69.9715 22.424 69.4275 22.04C68.8995 21.64 68.2035 21.44 67.3395 21.44C66.4915 21.44 65.7955 21.64 65.2515 22.04C64.7075 22.424 64.3075 22.936 64.0515 23.576C63.8115 24.216 63.6915 24.92 63.6915 25.688C63.6915 26.472 63.8115 27.184 64.0515 27.824C64.3075 28.464 64.7075 28.976 65.2515 29.36C65.7955 29.744 66.4915 29.936 67.3395 29.936ZM76.4764 32V15.032H88.1164V17.36H79.0204V23.048H86.8684V25.4H79.0204V32H76.4764ZM95.8344 32.144C94.0584 32.144 92.6984 31.68 91.7544 30.752C90.8264 29.808 90.3624 28.376 90.3624 26.456V19.352H92.8344V26.312C92.8344 27.064 92.9384 27.712 93.1464 28.256C93.3704 28.8 93.7064 29.216 94.1544 29.504C94.6024 29.792 95.1704 29.936 95.8584 29.936C96.5784 29.936 97.1544 29.792 97.5864 29.504C98.0344 29.2 98.3544 28.776 98.5464 28.232C98.7544 27.688 98.8584 27.048 98.8584 26.312V19.352H101.33V26.456C101.33 28.408 100.85 29.848 99.8904 30.776C98.9464 31.688 97.5944 32.144 95.8344 32.144ZM104.309 32V19.352H106.661L106.781 21.128C107.101 20.664 107.485 20.296 107.933 20.024C108.381 19.736 108.861 19.528 109.373 19.4C109.885 19.256 110.381 19.184 110.861 19.184C112.077 19.184 113.029 19.448 113.717 19.976C114.421 20.488 114.917 21.184 115.205 22.064C115.509 22.928 115.661 23.912 115.661 25.016V32H113.165V25.52C113.165 25.008 113.133 24.504 113.069 24.008C113.005 23.512 112.869 23.072 112.661 22.688C112.469 22.288 112.189 21.976 111.821 21.752C111.453 21.512 110.957 21.392 110.333 21.392C109.565 21.392 108.917 21.6 108.389 22.016C107.861 22.432 107.461 22.992 107.189 23.696C106.917 24.4 106.781 25.192 106.781 26.072V32H104.309ZM123.718 32.144C122.454 32.144 121.406 31.864 120.574 31.304C119.758 30.728 119.142 29.952 118.726 28.976C118.326 28 118.126 26.904 118.126 25.688C118.126 24.456 118.334 23.352 118.75 22.376C119.166 21.384 119.798 20.608 120.646 20.048C121.494 19.472 122.566 19.184 123.862 19.184C124.342 19.184 124.822 19.24 125.302 19.352C125.798 19.464 126.254 19.64 126.67 19.88C127.102 20.104 127.47 20.408 127.774 20.792V15.032H130.246V32H127.87L127.774 30.272C127.486 30.704 127.126 31.064 126.694 31.352C126.278 31.624 125.814 31.824 125.302 31.952C124.79 32.08 124.262 32.144 123.718 32.144ZM124.126 29.936C124.942 29.936 125.614 29.736 126.142 29.336C126.686 28.936 127.094 28.408 127.366 27.752C127.638 27.096 127.774 26.384 127.774 25.616C127.774 24.832 127.638 24.128 127.366 23.504C127.11 22.864 126.71 22.36 126.166 21.992C125.638 21.608 124.958 21.416 124.126 21.416C123.262 21.416 122.574 21.616 122.062 22.016C121.55 22.4 121.174 22.92 120.934 23.576C120.71 24.232 120.598 24.952 120.598 25.736C120.598 26.312 120.662 26.856 120.79 27.368C120.918 27.864 121.118 28.312 121.39 28.712C121.678 29.096 122.046 29.4 122.494 29.624C122.942 29.832 123.486 29.936 124.126 29.936ZM138.006 32.144C137.414 32.144 136.822 32.088 136.23 31.976C135.638 31.864 135.086 31.664 134.574 31.376C134.062 31.088 133.63 30.704 133.278 30.224C132.926 29.728 132.702 29.12 132.606 28.4H135.126C135.254 28.784 135.478 29.096 135.798 29.336C136.134 29.576 136.502 29.752 136.902 29.864C137.318 29.976 137.726 30.032 138.126 30.032C138.366 30.032 138.63 30.016 138.918 29.984C139.222 29.952 139.51 29.88 139.782 29.768C140.054 29.656 140.278 29.496 140.454 29.288C140.63 29.064 140.718 28.768 140.718 28.4C140.718 28.112 140.638 27.872 140.478 27.68C140.334 27.488 140.126 27.336 139.854 27.224C139.598 27.096 139.286 27 138.918 26.936C138.198 26.776 137.422 26.624 136.59 26.48C135.774 26.32 135.054 26.048 134.43 25.664C134.206 25.52 134.006 25.36 133.83 25.184C133.654 24.992 133.502 24.776 133.374 24.536C133.246 24.296 133.15 24.04 133.086 23.768C133.022 23.496 132.99 23.2 132.99 22.88C132.99 22.224 133.118 21.664 133.374 21.2C133.646 20.736 134.014 20.36 134.478 20.072C134.942 19.768 135.47 19.544 136.062 19.4C136.654 19.256 137.278 19.184 137.934 19.184C138.782 19.184 139.55 19.32 140.238 19.592C140.926 19.864 141.494 20.264 141.942 20.792C142.39 21.32 142.654 21.984 142.734 22.784H140.406C140.31 22.352 140.03 22.008 139.566 21.752C139.118 21.48 138.55 21.344 137.862 21.344C137.622 21.344 137.358 21.36 137.07 21.392C136.798 21.424 136.534 21.496 136.278 21.608C136.022 21.72 135.814 21.88 135.654 22.088C135.494 22.28 135.414 22.536 135.414 22.856C135.414 23.16 135.486 23.416 135.63 23.624C135.79 23.832 136.014 24 136.302 24.128C136.606 24.256 136.95 24.36 137.334 24.44C137.878 24.568 138.462 24.688 139.086 24.8C139.726 24.912 140.246 25.032 140.646 25.16C141.174 25.304 141.622 25.512 141.99 25.784C142.374 26.056 142.662 26.4 142.854 26.816C143.062 27.232 143.166 27.736 143.166 28.328C143.166 29.096 143.014 29.728 142.71 30.224C142.406 30.704 141.998 31.088 141.486 31.376C140.99 31.664 140.43 31.864 139.806 31.976C139.198 32.088 138.598 32.144 138.006 32.144Z" fill="#090F1F"/>
</svg>
